P2
# Created by IrfanView
80 53
255
95 94 94 95 95 99 101 101 104 107 107 109 111 116 114 119 120 
122 122 121 126 126 130 133 134 138 138 140 142 143 145 148 148 
148 152 153 155 156 158 162 162 163 164 167 171 171 173 173 178 
180 182 183 186 187 190 191 193 194 196 197 199 201 202 203 206 
206 210 211 214 215 215 220 219 222 222 224 226 229 232 233 92 92 96 95 100 99 101 104 106 109 106 112 111 111 116 119 122 
125 124 126 126 128 130 134 133 137 137 139 142 144 147 146 148 
151 153 153 156 158 159 159 164 164 165 167 169 171 173 176 177 
181 183 183 186 188 189 191 193 194 198 199 200 201 202 204 207 
208 210 212 214 215 219 220 219 222 223 226 228 229 231 233 93 94 96 98 99 101 103 102 108 107 111 111 113 112 117 118 121 
122 123 125 128 129 130 135 136 137 137 141 142 143 145 147 149 
150 152 155 158 163 165 163 163 164 165 168 170 173 174 177 178 
182 184 184 187 189 191 192 193 195 197 200 201 201 203 205 207 
209 212 213 214 217 219 219 220 222 224 225 228 230 233 233 95 96 97 99 100 100 104 105 105 110 109 110 114 115 119 118 119 
122 124 126 129 131 132 134 135 139 140 142 143 145 145 146 150 
151 154 159 167 28 31 168 165 165 166 171 170 175 173 177 179 
181 184 184 188 188 191 192 194 196 199 198 201 204 207 206 208 
210 212 214 216 219 219 221 223 223 226 229 228 230 231 233 93 94 97 98 99 103 106 106 106 106 111 116 115 116 117 118 119 
123 128 126 130 130 133 135 136 140 140 142 145 144 147 146 147 
153 154 161 29 49 48 171 167 166 169 169 169 175 173 178 180 
182 185 187 188 190 191 192 194 197 199 201 201 203 206 207 209 
211 215 217 217 220 220 220 222 224 226 229 228 230 233 231 96 98 98 102 102 106 107 106 111 107 113 114 116 118 119 120 120 
124 125 126 131 130 133 137 136 141 140 143 142 145 147 148 149 
151 153 161 23 48 48 48 171 167 168 170 172 172 175 177 181 
181 185 186 188 191 193 194 195 198 199 201 203 205 206 208 210 
212 215 216 219 218 220 222 223 226 227 227 228 230 231 233 96 98 100 100 102 105 106 109 110 111 114 114 115 117 117 119 125 
124 126 128 131 130 136 135 138 138 141 142 144 144 147 147 147 
153 152 160 169 40 94 74 173 172 170 171 174 174 177 178 181 
183 187 186 190 190 193 194 196 197 201 202 205 206 205 210 211 
211 217 218 219 221 220 222 224 226 226 228 229 230 232 233 100 101 102 103 105 109 105 110 110 113 116 115 117 115 118 124 122 
123 127 126 129 133 134 136 137 139 140 142 145 145 147 146 150 
152 154 159 167 45 52 56 67 180 173 172 174 177 176 181 182 
184 185 189 190 192 193 195 196 199 199 203 206 205 208 211 211 
214 217 217 220 220 223 222 225 225 227 230 227 231 230 232 100 101 102 103 103 107 109 109 111 113 112 115 115 118 121 121 124 
121 127 128 131 133 136 136 138 140 141 142 145 145 148 147 149 
151 153 158 165 59 42 49 33 107 180 173 174 176 179 181 182 
183 187 187 189 192 192 195 196 197 200 203 206 206 207 211 211 
214 217 219 221 221 223 223 224 227 227 228 228 230 232 233 96 101 102 106 104 106 110 108 112 111 114 115 119 122 121 121 124 
126 129 130 131 133 134 136 139 140 139 144 142 145 146 149 149 
151 153 158 164 51 184 99 24 77 166 178 177 179 178 180 181 
185 189 188 190 190 193 196 198 198 202 203 206 207 211 211 214 
214 218 217 222 220 222 221 224 226 226 227 228 228 231 232 99 102 101 104 106 106 108 106 112 113 115 117 119 119 122 123 125 
125 127 129 131 134 134 137 138 141 142 142 144 145 147 150 149 
151 155 158 165 38 53 72 36 56 107 94 182 176 179 181 183 
185 187 187 191 192 194 197 196 199 203 204 206 208 211 212 216 
216 218 219 221 222 222 223 223 226 226 227 228 230 230 232 100 104 104 105 107 110 108 111 112 113 115 115 119 120 119 124 123 
127 129 130 132 134 137 136 139 140 141 143 145 146 146 148 151 
152 154 158 164 25 87 24 78 68 205 140 147 183 182 181 184 
186 187 188 190 192 195 196 197 198 203 204 207 209 211 213 214 
216 216 219 220 221 222 223 223 226 226 227 228 230 231 230 101 103 105 106 106 107 109 113 115 114 118 116 123 118 124 125 128 
126 129 131 131 134 134 137 139 140 141 144 145 145 147 149 150 
151 153 157 164 24 37 50 37 76 67 172 168 82 189 185 186 
187 188 188 191 193 194 196 198 201 203 206 205 209 210 213 215 
218 216 218 220 220 224 223 223 225 224 227 227 229 229 230 102 106 106 107 107 108 111 112 115 115 118 117 120 120 122 126 124 
128 131 131 133 136 137 137 139 141 141 144 145 146 145 149 149 
151 154 158 166 17 17 13 13 15 29 14 16 93 102 200 198 
197 195 192 192 192 195 196 198 201 202 205 207 212 212 213 215 
217 218 218 221 221 222 223 224 226 225 227 226 228 229 227 103 107 108 108 111 111 112 112 116 117 118 120 122 123 123 128 127 
130 131 133 134 134 138 139 138 141 142 145 146 146 148 150 151 
154 157 161 173 10 40 52 48 34 49 13 20 19 16 17 18 
23 33 200 194 193 195 197 199 202 204 206 209 210 212 214 214 
217 218 217 221 221 221 223 224 224 225 225 227 228 227 229 106 108 106 107 110 113 114 113 115 118 122 121 123 124 124 126 129 
131 131 132 133 135 136 139 140 141 143 143 145 145 151 152 160 
164 165 169 182 8 208 99 101 84 104 35 50 11 64 54 39 
31 61 105 196 195 196 198 200 201 203 205 207 208 211 213 215 
215 219 218 219 222 222 221 223 226 226 225 226 226 228 228 107 107 108 108 111 115 117 116 119 118 120 123 124 124 124 129 127 
129 131 134 135 136 137 138 141 142 141 145 146 146 150 157 10 
10 11 11 67 96 52 34 9 23 13 26 58 36 88 244 212 
134 153 211 203 198 197 199 200 202 204 206 207 211 212 213 214 
216 217 219 219 221 220 222 223 224 224 225 225 226 227 226 109 108 109 112 115 114 115 116 117 123 120 126 125 124 129 130 132 
132 130 136 135 136 138 140 142 142 143 144 145 148 151 162 31 
15 16 16 14 10 19 18 19 14 11 22 151 62 8 31 16 
36 24 41 25 208 205 205 203 205 206 208 209 210 212 214 216 
217 219 219 219 221 222 222 226 222 224 224 224 224 225 226 109 109 110 113 113 115 117 118 118 123 123 123 126 126 128 129 131 
133 132 137 136 139 137 140 142 141 142 145 147 148 152 166 6 
11 10 57 90 67 76 14 14 18 9 37 17 21 20 12 8 
15 15 123 109 79 45 220 217 214 215 213 215 217 216 216 217 
216 218 221 222 221 220 223 222 223 223 225 225 225 227 225 109 110 117 114 113 117 119 119 123 122 124 126 125 126 127 131 131 
134 135 136 136 138 139 140 143 142 144 146 146 148 153 164 38 
19 16 40 16 13 17 12 11 7 12 7 102 70 43 10 10 
8 13 11 12 15 9 14 29 20 10 193 113 238 227 227 227 
225 227 227 226 223 223 224 222 224 220 223 225 224 224 228 111 115 113 115 116 116 118 122 119 123 122 125 126 129 128 131 132 
134 133 135 137 138 140 142 142 144 143 146 146 150 154 135 56 
31 24 19 27 22 74 26 14 29 22 12 20 18 22 15 13 
17 14 32 55 113 73 22 10 9 12 13 13 65 32 32 57 
29 32 255 189 233 232 228 225 222 223 223 223 225 225 226 111 111 116 117 119 118 123 120 123 125 127 126 129 128 129 133 133 
134 136 138 139 137 140 143 143 143 144 146 151 154 158 10 81 
71 139 56 56 60 17 164 22 31 28 19 28 23 10 37 17 
46 22 14 23 15 22 14 21 16 38 16 7 190 141 46 35 
63 40 33 24 52 44 188 229 226 223 223 223 225 227 227 111 116 115 116 117 119 120 121 124 125 128 130 130 130 133 135 135 
136 136 138 137 138 140 142 142 145 143 207 113 57 34 23 112 
60 58 79 71 146 35 48 59 78 25 52 127 7 39 91 31 
87 25 23 42 18 110 20 18 22 16 22 18 21 14 21 16 
18 13 19 22 112 185 101 242 233 232 227 224 225 224 226 114 114 116 117 118 123 123 123 125 128 125 127 132 128 129 132 134 
134 135 137 140 138 187 191 8 91 115 47 50 20 25 77 2 
6 55 89 16 8 7 13 16 31 33 193 197 185 114 111 31 
75 31 167 138 23 11 15 149 83 93 217 22 66 23 109 17 
109 16 184 18 26 15 21 21 23 47 231 226 225 226 225 114 117 118 119 119 121 123 125 126 127 130 127 129 127 127 133 132 
184 178 13 169 98 7 22 124 105 40 35 23 24 73 96 117 
1 43 77 0 3 39 12 117 36 214 203 170 86 107 193 219 
190 184 168 142 122 44 213 184 82 63 158 59 239 85 10 0 
34 250 92 129 22 34 23 19 240 38 234 232 229 228 226 118 118 122 120 121 126 121 123 123 123 128 122 184 170 76 109 107 
18 10 41 19 58 74 66 63 165 191 50 224 141 36 47 35 
21 22 22 21 2 79 27 72 169 94 140 250 140 45 223 184 
67 63 48 35 33 34 30 27 27 22 29 14 54 76 144 149 
89 247 152 178 163 205 69 161 194 30 162 57 237 236 233 116 116 121 116 120 120 125 166 200 155 14 13 78 111 51 53 26 
20 9 17 143 0 180 47 69 81 42 160 31 81 51 37 159 
85 48 9 77 130 27 61 181 180 50 191 138 123 118 114 14 
5 11 8 7 5 7 5 5 8 7 7 8 6 10 8 5 
19 22 20 23 25 84 20 73 85 24 70 42 220 206 172 113 116 161 189 125 115 101 115 101 125 90 79 139 143 147 156 171 
38 91 188 60 251 79 77 214 251 7 28 103 175 142 63 35 
15 125 15 13 16 193 186 191 188 158 154 4 6 11 7 7 
12 4 3 4 8 3 8 5 2 4 10 6 6 2 5 12 
6 10 16 8 9 10 11 8 21 20 22 25 71 82 31 140 23 83 106 105 161 38 121 1 200 149 77 16 19 149 38 0 
21 90 30 33 6 174 12 65 11 16 34 132 1 3 4 3 
4 36 41 9 190 204 195 163 164 8 6 4 3 7 10 5 
9 4 4 13 1 5 7 4 14 9 5 12 19 12 8 5 
12 5 6 13 7 7 8 12 20 13 13 16 159 151 8 10 4 0 10 77 150 151 142 156 41 143 34 51 96 54 34 133 
195 0 26 10 162 34 3 168 13 117 19 4 13 2 7 1 
9 7 13 143 185 189 168 12 8 4 7 3 3 6 10 11 
3 4 2 5 5 6 4 3 12 10 4 14 6 11 6 6 
7 6 8 13 8 8 7 6 7 120 17 40 11 9 15 135 46 94 13 18 12 14 4 0 8 12 73 65 85 179 155 103 
193 21 22 30 32 14 14 19 52 181 6 162 6 27 95 32 
185 40 193 135 191 169 18 10 6 3 5 6 7 5 5 19 
11 9 6 8 4 4 10 4 8 11 9 4 5 7 9 5 
7 8 13 10 7 7 7 0 13 12 10 35 11 53 13 86 78 168 144 3 146 139 143 144 29 146 178 119 15 167 63 131 
163 49 84 169 28 97 147 22 34 0 19 6 8 20 18 13 
181 183 141 179 176 18 12 13 4 6 64 0 8 100 29 13 
7 5 6 8 9 7 5 5 6 12 18 8 11 6 5 6 
5 6 9 5 6 9 12 176 14 18 13 75 13 5 7 85 1 24 5 1 6 15 46 105 33 14 23 71 25 69 179 90 
182 20 119 161 32 112 14 34 185 47 60 10 184 49 31 143 
213 169 211 188 192 11 15 10 3 4 7 3 2 11 47 10 
2 65 3 13 18 173 16 6 7 15 7 6 12 6 6 6 
8 4 4 6 6 7 15 139 7 1 212 205 51 55 16 26 99 156 141 3 24 152 138 138 134 159 36 15 44 104 16 166 
17 195 155 211 94 183 7 103 31 28 3 17 11 59 165 141 
179 162 179 171 4 5 7 6 4 223 6 241 8 200 11 28 
3 7 8 1 10 7 7 5 6 6 3 9 13 4 6 7 
5 5 5 6 6 8 11 7 7 20 41 12 180 79 13 132 137 63 163 117 125 145 91 110 38 8 43 169 88 196 44 186 
75 174 41 75 39 9 55 1 7 16 22 19 98 170 177 173 
32 205 167 185 21 18 4 4 13 11 8 8 5 3 6 14 
11 15 16 21 9 15 11 11 16 21 20 21 22 18 19 10 
7 9 8 13 10 7 7 5 7 6 8 6 6 9 8 128 28 74 191 122 156 29 184 9 72 157 8 180 70 25 37 107 
51 48 79 157 7 192 18 22 11 19 5 250 165 208 157 37 
8 184 22 152 24 12 9 9 5 4 243 6 13 20 24 131 
77 35 19 150 10 4 5 4 3 9 14 8 4 17 3 5 
12 12 16 14 12 83 3 10 5 6 25 6 31 7 11 100 141 52 63 75 50 108 115 29 47 99 6 109 18 22 19 21 
12 5 17 88 102 23 11 1 12 8 21 128 198 182 46 6 
212 177 160 99 25 10 6 13 4 24 31 93 198 199 207 162 
92 10 36 56 11 6 8 6 7 7 16 10 10 5 5 8 
9 131 21 252 24 81 13 15 15 10 6 3 6 6 6 89 77 98 23 5 147 132 157 33 20 103 40 23 21 108 24 87 
20 153 6 0 8 107 174 168 173 190 42 161 184 57 4 24 
184 147 10 83 12 22 15 7 38 182 194 192 191 193 201 147 
59 71 20 11 7 6 4 3 6 15 5 8 15 4 8 11 
8 77 0 45 9 15 13 49 238 247 191 15 13 12 5 21 15 31 20 19 18 13 30 21 16 16 15 33 38 28 18 11 
30 10 11 11 15 13 10 12 168 93 203 205 170 3 2 60 
169 47 43 52 46 7 22 65 202 195 159 194 197 201 179 69 
166 78 16 10 5 5 3 6 12 13 9 18 4 6 13 14 
7 19 188 12 13 18 255 18 11 9 1 16 12 14 7 17 17 51 40 21 142 148 23 94 52 70 89 87 79 22 44 16 
10 106 3 4 4 12 154 161 175 156 211 10 8 13 6 211 
170 32 3 13 13 49 27 4 6 69 4 8 6 6 6 199 
14 11 4 4 3 5 8 7 12 4 15 6 6 9 15 14 
26 229 16 254 16 9 17 20 15 13 23 16 16 19 16 112 3 151 25 155 25 29 91 29 49 36 130 68 31 20 24 36 
29 16 28 44 24 131 154 25 91 189 216 18 23 47 7 209 
168 177 13 25 23 15 5 6 4 3 4 4 5 4 3 3 
3 4 4 6 4 3 6 11 8 11 3 5 4 13 14 166 
92 30 14 12 15 247 255 197 12 8 235 233 232 231 231 9 32 25 19 18 45 29 34 35 25 19 76 17 18 20 82 45 
22 14 40 170 94 32 44 34 58 47 35 128 41 17 101 168 
169 4 11 47 13 33 5 5 8 4 3 3 2 6 3 2 
8 3 4 3 4 5 11 4 3 5 5 6 12 109 163 12 
3 236 7 48 17 46 16 225 229 226 225 223 222 222 222 101 110 58 76 18 75 26 51 43 27 81 18 151 25 18 20 45 
23 75 82 180 148 47 79 78 113 11 27 1 15 19 24 171 
170 20 35 43 14 54 5 7 9 6 10 8 9 5 6 7 
6 8 6 6 6 6 4 6 4 3 12 13 13 24 90 176 
170 12 3 240 69 225 226 221 220 218 219 219 220 220 220 9 20 83 24 40 56 26 64 56 59 8 19 14 18 23 29 29 
30 32 119 68 96 93 101 156 156 20 67 11 20 30 21 167 
50 27 44 7 45 5 9 12 17 13 13 12 10 11 12 12 
13 12 10 9 5 7 7 3 5 10 10 7 38 10 253 21 
11 13 111 5 229 222 218 216 216 220 217 218 219 220 220 23 135 80 59 41 23 79 33 22 14 8 33 16 23 180 46 43 
40 84 17 84 83 143 16 16 15 18 15 16 13 23 149 159 
46 142 2 2 128 5 4 14 12 7 4 7 18 9 11 3 
4 6 6 7 5 6 6 6 8 12 134 14 10 161 22 15 
233 111 68 227 221 216 213 216 218 217 220 217 218 220 220 105 10 20 92 18 54 21 24 31 68 8 18 43 109 15 108 114 
110 26 185 75 88 77 21 74 23 42 23 16 11 39 188 158 
32 161 3 7 6 5 5 2 10 2 2 8 3 14 2 5 
2 3 8 5 5 7 6 2 9 204 15 29 16 78 11 18 
16 32 18 222 217 215 213 217 218 217 217 218 218 219 219 41 52 72 89 18 20 11 40 22 16 11 163 7 34 33 137 184 
93 139 69 75 21 72 108 15 38 60 12 19 8 14 158 156 
25 2 0 94 7 5 4 2 2 9 4 3 10 3 9 3 
3 4 6 8 4 3 4 9 12 82 13 11 148 6 231 223 
190 253 224 219 215 215 216 215 216 215 218 217 218 218 219 56 19 17 18 105 23 14 31 18 57 116 34 6 158 210 54 171 
36 72 132 38 19 29 16 15 86 15 36 23 134 35 159 156 
21 3 3 9 4 49 38 212 73 12 16 8 13 9 15 14 
13 15 16 14 9 14 7 8 102 230 17 8 9 3 157 232 
89 212 225 216 215 214 215 215 217 217 218 218 217 219 218 14 7 21 7 87 5 17 24 3 0 57 172 23 118 12 100 53 
54 53 116 15 24 12 108 11 16 50 109 11 80 119 159 155 
21 2 11 9 3 10 236 61 10 243 10 8 11 23 32 0 
119 13 20 0 9 4 8 2 4 5 13 22 3 3 14 214 
54 13 222 213 213 213 216 217 216 216 218 218 217 218 219 15 21 11 107 108 85 17 9 141 32 175 131 158 167 144 64 35 
84 125 26 46 99 12 139 20 28 20 78 42 33 24 154 156 
2 4 12 4 219 4 1 0 15 11 60 11 15 9 19 27 
122 34 6 8 14 13 9 8 7 10 13 21 235 225 10 233 
19 20 221 214 214 215 215 215 216 217 217 218 218 218 218 16 19 9 5 16 11 71 168 159 166 61 116 19 56 85 22 89 
42 78 139 135 37 60 17 125 31 30 20 92 102 163 156 152 
22 4 6 24 18 147 61 19 13 233 13 5 9 12 8 7 
9 3 9 17 9 7 18 7 5 8 10 23 20 119 234 12 
37 14 220 212 213 212 214 216 215 215 215 215 217 218 217 78 109 9 17 88 75 57 93 45 74 37 9 11 11 23 113 25 
21 82 38 25 26 55 105 20 115 17 52 20 71 170 146 158 
18 50 4 163 13 4 0 8 5 8 127 192 60 46 68 65 
10 0 164 222 112 14 12 6 10 7 9 22 134 97 232 10 
41 19 221 214 213 216 216 214 215 215 216 216 216 219 218 19 19 16 8 7 8 10 31 115 69 29 65 80 195 10 48 20 
26 9 109 146 99 76 20 76 39 26 156 57 102 166 150 156 
39 6 248 23 15 10 9 164 5 82 165 227 89 15 86 42 
126 47 4 14 49 7 27 24 11 4 9 17 254 75 227 245 
17 49 222 215 213 213 213 213 214 214 217 215 218 216 218 