P2
# Created by IrfanView
80 53
255
70 73 78 81 78 70 73 77 82 75 74 73 77 80 78 76 76 
86 84 81 79 85 89 88 86 80 83 88 89 80 78 82 86 
82 81 81 79 88 85 82 82 90 90 87 85 84 87 91 88 
78 80 84 87 80 78 77 80 83 80 78 77 86 83 81 77 
80 83 82 79 72 75 78 81 72 70 71 75 72 69 67 67 77 79 80 76 76 79 82 84 74 77 80 82 76 73 76 80 
85 81 76 77 88 89 87 81 86 89 91 90 82 85 88 90 
79 80 84 86 87 81 79 81 92 89 84 80 89 90 93 85 
83 86 87 90 78 81 83 86 79 76 77 79 86 81 76 74 
84 86 82 76 79 80 82 81 72 75 77 78 68 69 70 64 80 81 79 74 81 85 85 84 74 79 86 87 74 71 79 83 
84 79 73 76 89 90 85 79 93 93 92 90 85 91 94 94 
76 81 88 95 84 79 77 83 93 88 81 76 93 93 91 86 
88 93 91 91 76 84 89 91 78 71 77 84 84 79 72 72 
86 86 81 74 85 85 83 80 74 79 81 79 64 67 73 70 79 77 75 74 82 84 82 80 78 83 87 85 76 78 82 87 
81 80 79 82 86 84 83 83 93 90 89 85 89 94 93 90 
83 87 92 95 84 83 84 88 88 85 84 82 92 89 86 84 
92 93 89 86 84 87 92 90 80 79 84 88 81 80 79 79 
84 81 78 76 86 84 79 76 77 81 82 79 70 73 76 82 71 75 81 83 73 72 77 80 83 78 72 76 88 88 83 79 
89 90 91 90 85 88 92 94 80 84 88 93 87 80 83 86 
96 91 85 80 94 95 94 87 90 93 95 95 82 86 91 93 
82 79 83 87 90 84 78 79 92 92 85 81 87 90 91 88 
81 85 86 87 72 75 79 82 77 72 71 73 82 77 73 81 74 81 85 85 73 74 80 86 81 78 73 78 88 85 82 77 
91 92 91 87 88 95 94 94 81 87 93 96 86 81 84 90 
93 89 84 80 96 93 91 87 94 96 95 94 85 91 96 96 
81 80 86 92 88 83 77 82 91 88 84 79 92 90 88 85 
83 89 89 88 74 78 83 87 76 71 72 77 80 76 72 76 80 83 86 83 77 80 84 87 80 79 81 84 83 81 81 83 
90 88 86 84 92 96 94 90 88 92 95 97 87 90 112 107 
90 116 142 192 219 201 107 88 98 97 93 88 91 94 97 94 
86 88 92 95 85 84 84 87 88 84 83 83 92 88 83 81 
88 91 88 85 80 83 86 88 78 76 78 81 75 74 75 70 84 86 87 81 81 86 88 90 78 82 88 90 80 76 82 86 
91 85 80 82 97 98 92 87 95 98 103 97 196 232 239 249 
206 217 228 242 231 215 209 219 239 101 91 85 98 98 99 93 
91 95 96 97 83 87 93 94 84 78 82 87 92 85 80 78 
91 93 88 81 88 89 89 88 77 82 85 85 71 73 77 86 78 75 75 80 85 82 79 77 89 89 86 85 89 95 92 90 
82 88 95 98 86 82 88 93 92 89 196 214 244 238 229 221 
251 247 242 235 229 242 223 243 212 220 234 244 101 89 85 90 
95 91 88 84 98 95 93 88 93 97 94 91 82 87 91 93 
82 79 83 86 86 82 78 77 88 85 81 77 85 85 83 87 77 78 82 85 80 79 81 83 88 86 82 82 92 93 90 86 
90 93 97 96 88 90 95 106 108 204 225 232 234 222 219 223 
251 241 229 218 206 177 190 162 193 190 240 250 221 224 112 97 
91 87 89 90 97 92 88 87 96 98 93 88 90 92 94 94 
84 85 88 90 81 83 83 84 85 81 78 79 88 84 79 89 76 82 89 90 75 75 82 89 89 82 76 81 95 95 89 82 
96 98 99 97 161 190 245 251 204 220 235 248 224 206 209 225 
251 234 180 145 190 203 185 73 104 85 74 91 111 231 247 250 
174 85 90 96 96 89 81 84 99 99 91 85 96 97 97 93 
86 92 94 96 76 80 86 92 83 76 75 81 91 83 77 84 81 86 91 89 79 81 87 92 86 83 81 85 93 89 87 85 
98 96 94 175 237 249 247 241 215 229 242 250 222 214 220 234 
234 190 182 169 184 175 134 149 165 70 77 75 59 83 251 246 
205 195 177 100 93 90 86 90 96 93 90 86 98 96 93 89 
91 95 94 92 81 86 90 93 83 80 80 84 86 81 78 79 86 90 91 87 84 88 92 95 84 85 89 92 88 85 87 89 
97 94 104 212 244 251 241 229 232 240 247 248 223 227 235 242 
178 146 160 126 137 129 122 158 227 96 57 68 72 69 82 85 
107 101 173 221 137 92 94 96 93 87 89 90 99 93 89 86 
96 98 93 89 88 90 93 95 84 85 87 89 80 80 80 89 83 78 76 82 93 91 85 78 96 97 97 91 94 101 100 100 
84 90 149 235 217 202 215 233 242 226 210 205 250 248 235 155 
149 148 147 140 123 183 169 227 181 123 61 70 96 64 55 81 
83 68 104 47 100 120 103 96 97 103 102 101 83 89 96 100 
86 80 84 88 95 88 81 76 96 93 89 82 92 92 91 91 83 81 83 87 88 86 85 84 96 94 91 89 97 100 98 95 
94 147 164 242 217 217 228 240 228 223 220 221 240 232 172 122 
142 170 198 188 172 138 199 177 139 88 58 109 60 104 61 64 
79 64 106 71 56 55 99 95 101 104 100 96 91 95 99 100 
88 87 90 93 90 87 85 85 92 90 86 85 93 91 89 93 81 86 90 92 83 83 87 90 94 90 85 87 100 100 96 100 
223 241 250 242 226 233 240 245 212 221 228 237 229 148 176 181 
238 180 194 152 122 135 136 127 93 93 115 150 83 100 78 87 
70 61 91 74 80 44 75 107 110 105 99 93 98 100 102 101 
91 94 97 98 84 86 90 92 90 85 83 84 96 91 85 91 83 90 97 97 81 81 89 96 93 86 83 87 102 99 116 129 
231 244 247 236 233 249 250 247 203 220 238 251 168 126 137 142 
145 157 135 76 101 127 92 157 151 173 123 106 102 102 98 97 
64 70 56 81 115 56 66 46 94 133 96 89 105 104 102 98 
94 100 102 100 81 87 93 100 89 81 81 87 96 88 82 83 91 88 87 87 96 98 94 91 92 97 102 111 162 182 204 228 
215 217 220 229 234 225 222 221 248 239 229 222 165 159 155 180 
82 75 67 76 81 126 90 123 129 100 175 106 180 165 83 119 
126 111 87 58 66 61 67 52 54 97 111 103 94 93 92 94 
98 94 92 91 102 97 93 88 93 97 97 93 86 89 92 91 90 85 81 87 99 97 91 86 99 102 113 174 190 223 240 245 
209 221 233 243 222 207 216 227 247 231 199 169 192 87 80 70 
69 73 88 69 86 99 136 103 136 78 81 156 108 133 78 67 
138 58 103 93 83 80 84 57 44 36 27 125 93 95 100 103 
94 88 90 93 103 97 89 84 99 100 96 91 93 95 97 96 88 84 83 90 97 95 90 85 104 114 146 182 209 242 238 237 
209 226 244 248 216 206 220 227 179 212 72 71 84 75 78 76 
78 75 68 76 71 108 145 153 174 98 75 106 73 92 117 66 
63 64 51 31 128 115 64 62 40 42 55 33 128 106 104 106 
93 87 92 99 99 94 88 86 100 99 98 90 99 99 97 99 88 88 90 96 93 90 91 98 120 144 163 185 218 237 231 223 
223 234 246 244 222 201 128 161 171 85 84 85 93 82 162 90 
89 82 85 86 128 124 154 94 76 71 79 78 73 91 60 71 
86 40 29 39 32 123 63 60 44 68 46 34 31 150 127 107 
97 96 99 102 94 94 93 94 98 163 155 123 127 129 102 100 87 92 99 101 87 89 110 134 165 163 169 183 222 231 220 211 
240 245 250 241 201 144 155 178 146 172 175 201 148 174 85 82 
95 87 77 80 110 163 78 67 58 58 74 83 83 52 70 79 
28 38 28 35 26 41 72 76 48 56 43 47 41 34 136 116 
99 102 106 107 88 93 98 102 105 128 150 110 132 111 123 86 99 97 114 116 117 127 149 162 157 179 205 220 198 206 221 237 
226 221 124 133 175 165 170 167 195 184 135 151 134 157 90 88 
70 80 84 141 68 116 64 72 79 62 58 57 80 62 38 32 
25 44 37 100 45 29 123 68 50 41 47 73 45 61 39 106 
130 104 100 96 108 105 103 110 127 131 134 137 111 118 211 95 106 105 172 202 228 209 196 170 184 200 226 221 213 224 237 244 
192 166 170 143 172 179 192 180 159 117 141 143 131 91 87 87 
92 96 115 98 56 86 86 75 68 63 67 71 57 50 32 33 
29 33 39 44 40 44 53 69 75 48 44 44 41 68 40 52 
34 116 97 99 109 104 99 97 107 122 163 139 165 216 235 159 175 183 193 211 242 222 200 175 217 224 230 218 227 214 201 177 
126 169 198 215 195 190 183 112 117 104 110 140 119 108 122 84 
98 126 143 93 65 76 73 81 63 71 74 92 75 71 101 49 
27 42 35 52 59 41 74 68 28 68 59 45 62 52 52 40 
28 21 103 101 113 104 95 91 113 122 137 155 217 244 247 245 221 201 202 218 231 214 197 194 224 225 231 225 124 127 196 215 
151 168 148 180 113 111 83 111 130 152 98 93 125 110 108 104 
147 93 80 61 77 72 84 82 81 78 124 105 130 139 100 27 
26 35 51 49 33 35 34 72 34 70 64 53 46 46 84 75 
49 50 29 132 108 103 98 101 129 190 208 216 245 244 239 210 240 245 239 223 223 230 230 231 203 216 193 202 140 118 156 175 
145 144 148 96 93 90 101 110 168 111 96 157 127 104 117 162 
142 76 85 57 71 69 72 87 99 91 104 148 190 241 36 25 
35 48 68 36 28 36 34 33 27 37 58 42 40 44 85 45 
54 36 38 32 122 112 116 121 144 202 227 240 210 212 222 199 248 243 239 217 229 242 236 238 206 186 119 137 129 97 112 127 
139 145 68 72 81 140 95 109 85 89 128 101 152 100 96 166 
84 85 77 98 79 79 80 91 105 99 111 199 246 220 37 23 
53 44 47 54 34 45 64 51 34 29 40 44 32 52 49 48 
93 112 59 33 38 124 122 119 140 204 215 229 178 204 220 205 228 215 219 218 240 234 233 130 126 162 129 102 87 93 112 136 
138 82 85 77 89 105 92 112 82 80 71 64 90 83 77 134 
98 95 72 89 83 91 88 108 211 120 162 215 231 138 38 33 
37 37 34 48 46 38 40 26 26 34 36 42 27 48 52 58 
110 103 91 73 33 44 127 116 119 135 172 193 181 201 225 208 210 202 202 212 241 172 115 174 191 101 104 99 100 118 118 136 
95 66 75 89 75 124 95 91 72 77 105 66 61 68 90 102 
68 69 98 97 81 91 111 225 142 202 212 215 169 134 154 68 
37 78 33 30 55 69 24 30 38 32 44 38 32 27 49 54 
91 104 87 39 85 43 27 129 136 152 159 141 171 175 213 221 206 235 178 184 134 151 111 206 168 92 98 97 113 125 121 136 
95 72 80 99 85 184 85 71 62 78 95 94 71 64 89 86 
83 59 68 81 96 113 223 210 238 221 196 113 124 176 131 43 
31 65 39 34 36 36 38 33 44 33 68 50 43 30 45 53 
79 115 112 94 56 70 48 40 47 135 146 132 150 143 151 189 126 167 137 126 138 178 186 141 77 87 112 128 120 133 156 143 
85 105 85 65 80 70 77 90 125 145 159 96 86 75 106 72 
76 85 107 101 213 199 206 216 236 205 115 184 141 132 40 42 
42 29 53 47 42 42 32 53 59 48 33 39 40 77 31 51 
50 115 94 82 75 81 93 59 45 126 136 138 127 125 128 153 151 146 214 115 114 170 206 98 90 167 163 126 131 152 128 104 
82 78 119 41 118 104 117 131 179 96 140 128 83 92 59 82 
78 66 81 228 219 198 163 172 64 133 174 103 74 42 49 46 
36 39 52 36 29 32 37 29 38 29 69 53 38 43 26 30 
71 103 109 91 60 51 37 88 32 39 117 137 117 124 129 99 148 182 137 127 162 218 110 109 109 123 190 167 108 129 90 59 
81 111 90 49 83 143 97 121 69 59 69 61 55 62 90 94 
80 67 225 234 164 114 118 158 128 117 102 46 49 43 47 75 
40 47 67 48 42 56 67 107 56 74 52 46 46 36 37 23 
28 72 72 82 95 52 52 33 44 39 37 32 120 125 133 102 98 139 168 208 222 73 89 139 130 93 205 190 163 108 57 104 
51 73 64 57 54 45 57 54 60 65 42 58 115 160 68 94 
74 224 140 114 163 207 103 105 75 170 58 137 76 43 39 36 
52 69 55 23 42 38 83 67 43 73 41 36 29 32 33 42 
25 32 56 54 65 69 66 31 55 62 45 33 39 130 132 113 174 187 194 165 77 62 72 140 110 74 104 117 114 196 153 45 
70 56 79 45 41 46 187 63 45 93 68 113 110 136 168 76 
208 199 132 161 166 159 73 80 222 146 107 150 30 43 45 40 
37 108 39 58 47 54 27 28 28 38 41 39 38 52 54 36 
36 34 31 49 30 36 36 56 28 24 31 43 48 36 122 203 145 160 189 161 63 114 62 176 50 130 89 154 65 156 52 48 
71 68 43 58 48 185 61 57 90 102 61 197 107 118 201 198 
205 115 106 83 53 173 117 105 109 125 101 30 32 29 65 32 
38 44 53 38 94 32 30 23 26 31 34 62 38 25 37 43 
28 31 22 20 38 38 38 42 38 30 27 62 42 29 24 175 181 171 76 48 109 123 162 100 76 71 133 59 57 55 43 180 
166 55 54 50 52 97 75 140 97 114 226 213 200 211 124 106 
74 103 105 93 150 185 145 138 171 147 64 38 37 33 42 44 
64 171 50 55 57 35 21 29 24 32 33 31 32 31 34 33 
44 37 23 27 23 64 49 37 37 28 42 18 32 42 30 181 224 73 47 58 54 169 207 60 56 93 92 69 57 80 132 77 
211 70 87 134 86 51 192 104 92 234 219 217 67 203 227 73 
198 64 166 164 190 209 162 164 161 117 34 32 43 31 48 64 
44 86 52 68 26 37 55 23 46 15 32 36 40 43 20 35 
20 34 20 27 32 44 97 51 22 33 30 42 28 35 37 187 178 110 38 65 38 72 96 66 86 133 51 168 163 107 110 118 
86 77 156 142 67 114 204 137 216 203 194 203 222 162 108 218 
246 208 201 137 215 236 224 192 117 38 42 51 52 39 44 48 
46 33 75 104 31 34 45 36 35 47 35 30 37 36 35 46 
21 32 41 29 35 27 32 31 40 33 37 63 36 28 45 183 148 42 203 90 96 187 75 75 200 90 126 198 172 220 141 74 
65 172 111 194 208 146 171 233 197 200 214 221 219 203 214 218 
223 188 184 211 236 226 184 80 34 33 46 47 41 37 49 48 
54 59 107 27 37 37 33 45 38 40 28 32 41 32 31 64 
36 36 25 36 21 37 28 28 29 37 41 38 29 29 35 77 91 138 213 94 49 97 70 150 50 93 184 185 225 215 190 174 
222 192 183 198 143 171 197 234 179 204 224 238 209 201 205 205 
224 194 197 196 230 170 132 69 42 59 59 60 114 41 44 73 
52 113 196 51 30 34 35 30 83 49 33 44 27 32 63 32 
38 27 27 21 28 75 89 107 77 30 66 40 45 28 27 191 206 153 144 146 70 81 189 182 158 203 200 208 204 201 167 123 
170 185 117 185 170 205 227 218 199 217 230 241 215 209 203 210 
211 203 210 185 170 144 78 43 54 71 58 81 46 54 59 101 
89 147 164 116 38 21 30 38 35 68 36 30 32 44 47 32 
50 50 27 31 83 90 68 49 99 48 29 40 43 42 22 173 193 177 134 139 99 217 65 182 174 113 182 215 111 64 61 130 
111 209 116 129 232 237 221 200 219 229 238 238 211 207 216 229 
192 191 157 100 82 115 65 51 63 53 65 100 53 66 90 137 
107 156 42 43 37 41 29 31 36 25 38 26 29 28 27 47 
66 76 40 30 55 51 38 32 47 65 40 32 44 37 16 186 174 63 59 83 200 139 161 158 126 206 127 98 63 76 88 184 
154 154 167 205 205 194 205 217 222 215 197 202 213 121 197 213 
181 53 121 72 49 58 68 61 75 89 66 207 66 68 205 199 
211 75 105 36 40 34 51 42 57 35 21 49 60 42 26 29 
18 57 33 46 30 22 75 23 34 31 42 21 44 41 23 97 60 82 115 191 104 144 155 192 213 113 66 92 63 142 81 180 
151 187 227 228 210 204 214 225 212 204 217 149 200 188 171 178 
58 81 67 112 118 81 73 66 121 153 159 94 111 59 205 208 
203 209 192 53 80 32 52 45 52 55 32 25 45 39 37 34 
43 55 51 70 63 26 26 28 25 21 24 28 70 44 36 70 69 115 169 183 140 163 204 221 104 67 52 67 96 125 207 149 
180 207 224 228 212 221 226 233 199 215 221 225 197 149 170 174 
77 116 134 109 127 130 102 92 125 126 99 117 78 204 228 231 
206 195 213 224 233 157 179 52 63 52 30 32 38 85 52 65 
15 19 85 91 36 15 32 24 48 27 19 27 36 32 28 112 181 71 147 69 79 193 211 156 73 76 108 84 141 171 190 185 
230 231 230 217 218 232 229 218 203 208 215 235 131 172 148 76 
151 96 190 118 141 146 106 134 185 111 208 178 211 226 243 236 
207 211 219 228 222 209 193 67 88 90 95 56 42 28 67 66 
41 41 32 60 79 31 28 43 30 30 19 32 46 32 41 191 224 46 53 52 219 228 139 77 94 150 159 97 196 205 216 231 
207 207 207 217 214 207 199 216 206 182 172 126 200 160 135 165 
148 89 141 146 111 175 115 143 126 115 204 216 230 219 211 219 
242 238 231 215 224 233 240 234 202 129 113 226 209 143 88 65 
42 25 21 26 90 56 27 19 27 70 37 23 19 26 37 226 49 87 80 196 188 107 131 180 123 96 180 204 209 217 236 241 
197 208 221 233 206 190 206 209 210 194 157 151 166 219 150 120 
106 185 227 111 146 148 128 141 198 192 213 233 221 212 198 210 
243 233 215 200 239 242 242 227 223 240 238 243 201 162 101 93 
71 38 35 43 64 111 51 32 48 35 31 31 40 34 32 75 78 150 191 190 169 204 170 187 168 189 216 205 216 231 227 222 
208 219 232 230 177 202 215 225 134 119 93 79 132 162 123 146 
212 169 187 155 142 138 162 219 202 206 225 238 222 212 205 216 
228 219 213 207 240 235 228 219 230 241 239 233 207 221 231 99 
80 76 83 81 107 119 202 204 229 38 50 25 43 31 23 208 175 203 159 179 176 179 155 173 218 206 197 197 222 230 221 208 
221 226 230 195 209 218 147 140 103 94 197 135 183 114 100 137 
173 123 182 170 207 224 234 225 211 224 232 242 214 218 221 227 
214 209 214 219 235 226 213 212 235 241 230 219 225 219 235 236 
182 100 116 111 187 210 215 219 217 208 54 30 70 33 31 140 193 167 181 162 171 126 207 209 156 189 212 213 153 179 191 192 
208 194 163 122 215 220 174 67 110 209 154 111 90 126 159 150 
125 162 189 208 194 185 184 202 221 213 198 184 228 226 221 205 
215 228 228 228 193 208 224 229 195 174 197 214 215 199 187 188 
169 145 147 194 225 225 227 209 190 172 183 131 44 30 21 