P2
# Created by IrfanView
80 60
255
85 107 107 128 99 136 147 157 127 83 160 131 170 96 122 162 138 
110 176 127 140 124 148 149 149 131 129 116 127 140 102 156 126 
150 142 116 159 146 153 152 141 138 159 151 144 85 79 156 119 
165 174 141 93 152 148 118 164 172 145 167 135 136 135 120 100 
100 129 129 148 112 82 101 114 107 123 100 111 100 78 116 132 110 133 128 139 103 109 124 114 103 159 149 190 77 150 140 142 
134 149 139 110 157 158 131 142 129 135 107 155 146 109 189 167 
82 137 170 155 130 112 126 92 123 123 118 100 93 137 155 122 
151 85 91 109 108 121 136 110 125 148 142 132 143 132 149 128 
125 130 109 126 144 113 100 110 109 123 106 117 86 120 87 87 106 119 93 130 134 129 97 94 117 103 120 110 176 136 123 129 
120 129 150 156 126 145 154 135 140 173 142 152 133 173 136 194 
124 138 114 130 157 138 102 144 108 91 111 98 137 127 124 97 
50 118 80 117 114 89 100 75 146 116 108 139 139 115 172 139 
162 104 106 130 149 136 128 97 110 89 99 91 112 79 78 79 105 96 117 122 131 121 100 98 164 75 116 125 94 117 102 114 
125 119 110 123 159 143 122 153 140 127 151 151 146 152 138 163 
173 128 123 144 128 117 133 133 138 170 173 67 85 135 119 141 
151 148 132 77 101 125 168 77 100 123 102 108 118 137 120 151 
117 119 162 116 115 84 106 102 91 119 107 132 101 96 96 104 101 127 99 121 128 107 86 82 76 89 157 99 116 84 108 107 
130 99 134 143 126 163 141 100 150 122 156 176 94 117 171 96 
184 123 59 152 94 130 142 115 84 153 176 80 110 26 158 148 
124 122 151 114 85 96 139 125 76 123 88 95 111 142 116 121 
128 95 153 120 129 122 83 80 94 127 122 90 92 99 96 87 89 116 106 77 70 96 158 94 106 78 109 125 75 90 179 112 
151 95 115 170 167 166 130 145 160 146 135 162 175 157 122 92 
88 100 115 76 91 104 76 5 32 24 12 17 59 88 15 13 
5 34 97 86 138 140 105 138 99 122 150 101 110 95 96 115 
137 132 140 143 136 122 110 122 116 119 107 102 113 92 93 86 54 82 113 98 119 101 71 79 110 78 83 57 109 78 77 129 
100 85 122 150 163 173 159 146 129 201 109 154 146 88 110 123 
96 146 35 24 4 21 20 14 131 37 32 12 43 66 49 31 
31 43 17 20 22 90 91 95 143 120 103 116 121 111 117 83 
105 119 119 127 131 97 130 133 129 111 126 99 93 85 74 68 81 76 107 103 89 94 123 52 126 79 117 77 76 91 74 102 
99 90 127 230 68 200 142 73 130 155 89 125 28 28 11 35 
23 24 45 62 68 62 23 45 67 68 72 66 92 60 119 57 
63 52 5 16 9 48 32 88 108 84 103 111 94 114 123 124 
113 122 135 126 83 123 99 103 101 100 88 108 89 70 92 78 46 105 90 99 68 131 87 83 137 126 85 34 169 112 112 80 
197 104 76 26 11 51 61 12 20 26 12 18 144 44 47 40 
35 31 60 75 101 117 90 89 101 69 83 73 126 145 48 118 
98 106 64 42 27 50 17 19 73 96 90 176 191 142 122 67 
86 112 77 111 99 130 148 107 110 119 95 89 94 123 68 76 104 96 105 62 65 95 157 97 93 142 117 111 56 120 30 36 
17 7 17 16 24 30 31 34 30 53 29 64 56 40 96 87 
82 80 88 134 99 125 125 75 53 103 158 130 166 184 150 194 
74 132 141 83 50 52 4 7 17 34 81 85 128 115 111 117 
111 123 126 186 115 130 68 131 69 98 76 92 82 93 44 127 126 92 105 74 53 94 162 69 135 126 156 121 29 26 48 74 
29 33 41 40 59 107 47 49 82 79 54 64 92 87 91 61 
122 105 91 222 116 146 98 60 38 39 50 47 45 40 67 78 
106 122 141 141 115 72 54 22 27 112 24 81 100 148 135 138 
118 120 120 140 131 149 85 94 115 98 72 65 101 60 64 130 100 97 93 106 52 44 142 114 151 23 12 20 20 18 19 71 
45 50 93 111 86 85 45 108 99 99 74 111 98 71 72 76 
65 39 24 17 66 39 49 44 49 58 34 32 18 25 26 37 
38 60 82 50 71 136 96 58 54 18 29 19 59 152 157 148 
121 178 91 125 72 94 116 75 158 124 142 100 107 85 107 86 66 76 91 33 42 105 25 32 23 18 22 27 17 31 51 33 
61 30 105 153 85 112 68 106 27 79 38 46 49 27 25 19 
13 90 39 130 48 60 74 72 78 78 119 100 106 99 69 29 
24 39 57 33 143 57 182 105 63 82 48 30 11 134 29 95 
153 98 104 80 183 97 55 90 60 94 82 100 115 94 99 128 145 53 34 81 18 20 179 148 36 37 31 42 37 81 88 127 
147 132 87 97 108 34 68 29 31 33 42 34 33 38 31 15 
18 80 138 126 97 97 97 118 82 129 125 127 134 93 118 74 
62 35 36 35 43 41 107 120 84 103 81 60 30 7 22 46 
112 133 139 118 137 76 70 73 69 94 70 98 68 79 87 120 146 11 27 9 13 10 85 38 45 71 77 53 85 143 100 93 
113 100 52 32 29 44 31 34 51 52 60 58 67 61 199 35 
22 77 83 66 105 111 138 88 139 163 123 153 95 142 151 36 
122 88 45 45 30 27 33 75 148 65 68 117 76 43 26 36 
18 22 118 154 131 115 102 146 69 45 79 101 95 69 110 33 42 122 53 23 20 21 22 48 107 127 76 121 52 118 88 98 
37 34 54 60 71 71 75 84 108 102 119 131 87 214 131 52 
29 48 77 144 126 134 83 206 146 163 102 149 171 177 94 29 
167 71 121 51 41 30 7 14 50 101 46 58 100 37 44 43 
6 5 14 85 86 92 131 121 59 75 82 72 156 69 52 116 36 115 107 45 31 27 44 71 112 90 74 98 100 67 36 55 
56 60 72 93 84 115 113 127 137 150 148 126 104 134 117 73 
114 109 95 129 132 126 197 169 146 115 105 116 120 66 121 151 
32 181 135 162 71 45 20 19 94 43 48 70 101 106 51 57 
37 21 56 13 29 134 106 86 97 76 79 81 52 53 76 126 88 142 79 89 76 67 66 46 91 55 57 24 48 54 65 70 
87 169 98 107 128 116 118 113 108 107 123 158 113 104 100 88 
64 56 59 122 121 92 147 154 120 116 134 146 151 155 131 49 
44 26 165 99 141 91 23 29 105 40 31 44 40 43 92 81 
78 58 6 8 24 43 89 66 75 79 76 67 107 94 79 110 69 59 152 106 136 82 55 67 35 65 59 81 74 80 89 80 
156 163 108 111 110 122 34 41 93 91 114 136 87 74 116 109 
143 133 23 139 135 181 144 100 118 141 137 124 134 44 124 148 
32 157 40 163 176 86 28 54 79 70 54 36 33 34 34 39 
62 84 61 7 5 10 108 70 34 58 74 110 40 67 57 96 82 48 113 111 85 68 25 42 55 61 62 114 120 62 120 104 
158 114 122 119 96 97 165 172 45 34 90 123 142 147 181 97 
129 110 122 102 109 189 133 160 150 112 148 179 125 174 121 63 
136 115 51 110 170 155 50 123 142 107 100 102 66 32 24 25 
31 80 42 17 10 38 26 14 81 91 85 50 31 81 51 113 90 119 58 113 107 97 46 68 112 143 112 120 113 139 125 141 
177 142 132 163 161 167 182 151 144 164 50 88 68 108 128 91 
99 102 96 187 81 183 106 124 121 135 143 190 104 162 104 133 
71 127 146 42 188 123 56 162 127 153 141 111 108 71 54 28 
13 106 20 24 23 116 24 18 81 62 71 76 51 62 49 123 76 105 133 180 122 147 150 80 106 138 136 148 110 104 74 185 
202 134 93 191 126 72 120 180 171 162 104 64 118 150 57 98 
129 52 102 113 60 178 144 142 130 129 135 185 103 152 95 133 
101 149 93 85 171 105 49 161 129 115 123 68 34 91 90 50 
49 59 84 88 108 30 33 33 64 172 252 187 94 72 53 90 88 124 70 100 108 147 142 131 109 135 135 130 146 115 195 173 
122 128 169 179 60 160 68 153 179 122 91 94 93 162 69 96 
104 88 89 64 47 183 164 136 132 129 123 107 105 114 109 135 
131 143 46 131 190 181 49 167 164 173 145 124 41 61 89 87 
131 155 99 86 48 24 88 84 224 246 212 238 230 198 91 92 89 123 109 150 115 111 73 85 111 89 151 105 154 116 95 124 
138 110 104 73 99 102 74 76 189 96 76 128 56 184 105 102 
141 84 40 85 48 192 150 132 132 120 140 86 91 93 116 138 
134 139 78 136 190 160 74 163 167 173 98 116 83 195 180 168 
124 118 113 31 121 69 88 90 108 172 104 118 180 154 226 142 87 118 80 205 134 119 115 104 82 119 123 130 144 132 98 96 
131 175 149 72 122 100 78 86 54 92 179 111 106 128 139 129 
142 106 77 86 49 188 154 134 147 131 146 142 132 106 150 148 
152 143 80 131 154 141 80 172 84 111 61 30 29 102 105 115 
127 137 74 99 121 93 92 141 40 53 86 83 83 99 62 93 39 79 133 77 99 110 144 132 129 118 135 129 131 87 165 142 
141 159 117 147 138 146 147 149 93 81 152 153 161 116 195 138 
141 96 111 97 41 189 173 124 118 96 150 96 85 95 107 138 
66 141 103 127 172 144 98 174 92 137 164 143 125 93 89 106 
143 38 96 88 37 58 96 52 49 46 49 79 61 45 56 106 64 81 66 147 118 135 116 131 98 136 110 56 94 121 101 174 
93 127 108 122 206 93 165 200 106 124 75 149 138 170 83 82 
145 122 169 109 60 184 167 155 134 143 158 147 148 152 143 136 
142 151 81 99 174 133 86 160 146 173 184 188 150 131 68 63 
163 160 114 146 178 79 139 125 41 68 83 62 68 62 67 111 102 81 113 94 123 143 143 122 78 157 162 60 93 127 106 82 
120 40 132 131 125 115 84 131 84 44 124 99 69 140 25 120 
88 127 172 183 64 181 157 175 138 153 159 150 158 160 148 133 
146 155 154 153 167 133 86 84 129 161 130 107 100 94 76 75 
109 119 121 124 66 68 107 139 93 113 73 48 62 75 66 120 123 97 104 80 113 130 109 84 122 35 107 83 88 141 111 101 
141 43 14 97 129 178 62 34 84 90 56 138 127 50 37 160 
87 116 162 187 57 100 183 159 161 144 154 150 151 161 149 131 
145 154 128 102 156 159 68 78 168 176 34 46 63 183 98 216 
118 95 96 156 209 194 51 142 81 46 33 75 97 129 83 111 108 107 129 133 139 149 153 101 146 129 123 55 88 110 99 142 
114 46 123 93 155 171 143 146 121 154 99 163 105 94 108 49 
103 122 72 158 58 71 141 99 157 211 159 164 152 154 148 137 
146 117 141 113 194 110 70 73 123 121 24 53 107 161 223 153 
152 44 40 63 182 181 83 50 76 69 100 92 92 139 84 104 95 130 91 95 95 94 138 128 144 69 27 163 114 148 133 89 
118 198 102 89 127 149 144 102 133 81 50 66 33 105 55 87 
90 61 112 101 140 128 150 134 67 89 129 157 150 153 92 155 
150 159 123 71 164 85 29 32 35 49 79 74 112 114 35 36 
145 60 84 75 62 70 157 146 251 221 134 182 93 100 68 82 60 120 111 122 129 120 133 117 129 100 67 40 158 165 96 147 
141 135 141 88 99 79 110 60 84 121 90 23 6 58 122 172 
129 52 133 57 65 74 81 109 117 87 178 154 154 158 147 155 
186 98 114 121 74 78 84 77 125 115 49 64 87 87 38 119 
67 54 63 43 44 100 206 103 206 210 234 30 151 99 114 66 97 109 151 149 82 96 96 107 66 150 28 130 125 138 100 24 
124 167 166 118 136 238 112 163 49 159 151 64 188 96 61 102 
122 130 185 83 44 82 40 86 136 38 197 213 175 163 163 166 
177 48 37 120 78 54 91 66 58 110 68 41 73 77 80 69 
116 79 92 39 129 61 89 177 56 75 192 122 172 78 57 108 95 115 100 58 65 76 114 73 113 81 44 103 116 118 85 71 
145 150 98 112 152 67 164 150 121 130 131 133 153 161 129 20 
33 70 36 68 178 26 23 141 114 175 127 52 104 111 165 173 
68 41 123 56 32 51 48 90 124 81 117 96 58 40 40 50 
162 66 103 44 69 133 78 38 51 58 62 152 118 147 75 96 92 98 100 60 84 66 90 128 105 98 137 82 154 120 121 82 
77 156 143 145 144 95 131 56 38 137 133 129 36 73 69 37 
22 80 134 91 110 121 136 96 101 125 95 74 93 54 161 124 
113 95 113 65 99 66 7 72 87 116 93 69 58 143 150 119 
161 118 60 107 69 64 95 28 92 105 37 104 101 94 84 63 100 127 133 124 139 44 89 120 115 149 129 147 139 84 130 24 
158 158 118 134 134 134 64 169 53 125 146 30 123 89 45 167 
106 25 151 105 68 141 145 70 97 55 80 79 165 107 133 145 
134 127 146 82 85 74 115 55 111 70 46 41 64 96 85 101 
107 137 82 248 216 71 49 117 87 104 91 95 125 112 123 127 76 106 91 182 60 127 106 135 130 118 93 137 96 95 97 70 
101 200 137 125 153 131 127 112 23 99 64 39 146 56 198 130 
169 108 205 48 105 83 99 126 97 177 177 164 142 168 165 134 
103 58 46 77 105 83 132 66 101 161 91 56 41 39 96 103 
114 68 250 108 177 80 98 91 98 83 91 104 111 121 71 123 114 111 109 113 162 168 85 87 79 126 124 144 118 76 139 97 
127 177 147 127 125 102 32 63 105 124 161 113 120 100 72 79 
96 71 108 51 77 21 155 86 56 79 81 42 60 188 61 166 
173 176 187 93 177 163 162 143 148 164 116 134 124 72 44 119 
84 110 117 48 75 57 111 98 103 119 113 90 89 111 110 121 120 118 88 111 85 82 98 119 136 130 158 102 95 136 121 91 
108 113 159 102 185 136 13 7 120 112 127 58 69 78 91 104 
144 78 35 104 32 78 32 108 126 140 38 108 28 80 124 84 
76 57 153 239 108 96 39 78 74 91 58 62 83 81 37 65 
84 64 49 72 92 151 110 93 97 128 75 116 100 100 131 99 106 132 80 81 92 119 103 112 126 111 92 114 141 80 129 114 
122 124 156 127 134 74 54 99 113 92 148 35 96 42 162 150 
82 64 150 68 58 192 113 134 99 66 106 16 80 152 163 41 
116 55 84 179 223 124 250 199 215 144 169 127 127 66 79 37 
68 106 105 35 127 70 149 120 115 78 130 125 129 161 163 66 99 110 119 146 111 80 155 115 138 124 162 168 97 130 74 107 
104 118 103 113 128 124 159 120 163 41 88 185 40 15 68 159 
155 100 129 105 118 76 136 124 128 99 131 82 55 68 100 69 
34 119 162 172 141 193 134 101 87 120 158 153 81 58 72 82 
46 63 64 88 41 42 64 133 139 166 157 156 154 156 158 50 85 100 120 82 123 108 75 96 91 66 115 100 115 78 90 142 
99 95 106 116 98 179 133 34 73 56 81 37 36 186 97 136 
79 104 109 111 182 116 167 85 168 124 158 151 96 151 191 187 
65 111 39 62 87 76 49 201 146 124 140 115 89 96 111 91 
92 94 69 95 98 111 165 162 159 152 162 170 150 152 137 66 40 70 100 87 115 88 110 88 70 106 97 73 115 105 69 53 
87 78 129 106 101 165 149 110 38 117 66 62 75 148 95 140 
90 47 184 183 177 150 118 167 81 93 134 175 72 78 144 134 
174 111 89 25 111 154 79 60 163 249 66 160 164 168 168 166 
171 170 160 162 158 167 176 168 159 161 168 167 171 160 137 37 30 25 92 78 89 76 104 73 50 128 127 145 112 95 96 62 
73 122 97 85 127 111 160 108 143 203 121 89 104 39 123 98 
72 42 69 50 79 116 81 67 34 98 131 74 74 61 94 46 
117 38 107 136 33 65 120 93 68 28 112 174 159 165 163 169 
165 153 173 172 167 171 166 162 165 158 151 165 140 160 145 75 16 31 72 74 53 133 89 66 75 64 115 58 77 61 76 100 
59 87 124 92 119 63 45 121 120 107 134 80 118 91 172 67 
141 92 12 28 137 137 119 129 59 64 89 97 142 99 178 66 
104 99 47 93 72 108 82 95 69 19 173 178 178 164 186 171 
175 177 170 169 176 168 170 145 127 153 141 160 141 146 109 80 115 35 36 98 70 112 95 98 118 29 63 75 67 94 48 101 
82 71 113 119 148 38 117 87 45 95 75 75 117 159 25 61 
33 119 176 149 117 57 152 115 183 170 114 154 175 103 159 134 
142 175 195 120 140 143 68 78 45 128 116 162 178 188 164 176 
165 170 177 178 181 168 183 179 161 91 61 72 73 138 160 73 79 34 89 119 76 78 39 102 38 34 49 66 80 27 57 93 
150 133 117 129 39 62 132 162 59 90 42 128 144 123 174 133 
91 117 164 166 45 97 25 89 130 180 117 81 111 29 148 119 
83 68 144 119 94 135 169 49 96 137 126 151 135 172 176 179 
179 176 184 187 163 169 180 180 173 164 158 148 162 149 150 32 27 61 27 83 29 100 56 68 72 40 58 11 38 31 50 18 
64 106 108 122 38 23 30 46 84 15 25 49 117 48 165 162 
142 147 151 129 112 93 105 66 138 55 153 143 91 64 77 91 
44 15 112 96 143 146 109 142 124 111 88 102 134 159 160 164 
147 181 176 177 165 171 171 179 178 167 168 171 166 165 166 56 34 21 40 54 55 46 55 72 33 34 42 13 31 23 140 58 
102 119 95 124 77 99 44 118 79 78 89 63 64 161 125 134 
129 155 155 145 171 168 111 123 87 120 114 62 30 60 142 64 
141 83 96 99 84 153 117 109 131 133 144 118 128 96 169 168 
152 160 174 175 179 187 178 174 174 166 162 166 159 148 149 43 40 103 121 113 81 27 25 71 50 78 91 95 46 20 28 36 
115 83 127 93 194 36 74 91 89 57 31 168 85 99 144 93 
106 118 85 197 75 106 62 41 100 26 14 114 95 173 197 103 
170 40 159 104 111 84 78 89 147 144 95 75 104 77 157 174 
164 152 168 182 175 163 177 176 173 157 158 174 143 150 151 52 49 41 35 155 154 24 52 103 70 70 75 78 101 34 23 33 
91 80 44 107 129 74 80 91 168 87 123 114 105 86 53 199 
81 138 93 150 126 115 74 79 131 153 132 153 146 114 123 120 
135 119 120 171 109 85 107 126 132 195 168 135 101 137 132 175 
172 95 162 174 173 163 173 170 166 160 157 152 152 158 144 65 48 142 148 159 138 40 83 45 41 44 48 40 86 53 9 20 
30 73 74 100 70 124 153 143 186 101 160 105 177 123 156 98 
178 112 122 161 181 157 99 47 88 150 115 143 36 115 116 126 
113 117 95 105 116 120 99 139 140 168 113 110 135 144 164 173 
172 179 164 156 159 158 167 161 163 146 157 157 167 151 148 114 89 115 123 148 125 160 88 22 144 76 44 39 113 89 40 13 
46 60 77 132 105 179 147 83 202 124 112 173 124 111 55 123 
117 88 102 110 61 95 159 129 123 206 153 140 133 101 101 132 
55 77 113 127 91 179 164 147 145 154 123 154 150 158 182 172 
177 163 149 136 161 216 160 154 156 161 161 160 160 152 149 94 77 165 69 74 121 98 75 150 142 119 28 112 78 37 99 17 
31 54 139 80 139 78 180 137 189 147 117 112 158 130 133 43 
124 132 20 72 131 36 96 173 224 63 147 146 137 102 71 101 
136 121 135 113 100 128 118 125 131 92 110 141 175 176 179 170 
181 163 150 173 252 163 164 147 140 254 157 224 157 152 149 81 98 59 78 95 107 171 117 82 78 143 117 58 36 25 15 29 
128 55 76 125 116 75 122 108 99 174 152 149 84 110 145 47 
96 50 134 75 22 39 195 95 92 131 94 178 87 103 162 171 
99 89 79 120 149 106 117 168 120 123 164 174 153 187 170 183 
173 170 153 140 142 165 163 156 167 153 254 254 155 147 150 31 64 95 89 97 119 110 106 76 145 174 136 53 45 9 46 68 
75 56 72 52 117 162 106 59 107 165 151 178 187 121 156 135 
203 82 90 194 104 60 164 109 209 189 115 82 91 151 127 117 
81 62 87 85 64 67 113 145 142 108 138 170 174 176 173 160 
174 161 158 177 152 157 161 162 156 159 148 150 157 160 154 38 45 87 102 66 36 100 53 28 170 132 130 139 64 35 130 87 
81 111 121 90 109 109 168 110 142 147 208 142 131 115 166 36 
76 107 97 56 120 81 87 92 47 83 106 69 93 94 51 129 
120 154 152 134 164 85 162 106 103 136 168 158 173 163 175 172 
178 162 154 155 160 156 159 162 160 157 154 157 155 144 143 50 35 104 101 75 109 41 103 86 108 126 124 128 112 64 119 49 
102 119 108 94 134 87 126 91 122 90 119 115 99 123 113 50 
70 28 132 124 35 38 35 57 75 88 64 77 110 119 82 130 
121 123 154 145 138 130 79 81 158 121 164 172 171 171 173 171 
174 174 163 156 153 155 151 148 114 142 139 141 153 142 144 43 39 64 103 90 58 69 94 77 78 104 92 73 75 83 65 74 
80 85 91 100 117 151 103 80 98 79 190 101 89 113 85 102 
116 67 96 86 27 97 68 119 119 88 67 106 86 81 145 112 
108 165 137 164 118 101 112 137 155 171 170 173 168 168 154 168 
159 157 146 153 166 163 151 149 128 157 141 148 142 147 131 32 37 43 58 71 64 71 109 59 86 72 58 38 91 84 66 84 
84 125 82 107 90 134 92 33 115 133 204 152 97 104 89 134 
97 89 131 100 98 89 104 59 31 73 101 117 66 81 168 124 
95 166 119 140 93 147 111 161 149 177 173 172 175 154 168 164 
151 151 145 151 153 154 165 147 120 122 136 145 133 133 138 