P2
# Created by IrfanView
80 79
255
0 0 0 0 0 0 0 0 0 0 0 0 0 0 0 0 0 
0 0 0 0 0 0 0 0 0 0 0 0 0 0 0 0 
0 0 0 0 0 0 0 0 0 0 0 0 0 0 0 0 
21 0 0 0 0 0 0 0 0 0 0 0 0 0 0 0 
0 0 0 0 0 0 0 0 0 0 0 0 0 0 0 0 0 0 0 0 0 0 0 0 0 0 0 0 0 0 0 0 
0 0 0 0 0 0 0 0 0 0 0 0 0 0 0 0 
0 0 0 0 0 0 0 0 0 0 0 0 0 0 0 0 
0 0 0 0 0 0 0 0 0 0 0 0 0 0 0 0 
0 0 0 0 0 0 0 0 0 0 0 0 0 0 0 0 0 0 0 0 0 0 0 0 0 0 0 0 0 0 0 0 
0 0 0 0 0 0 0 0 0 0 0 0 0 0 0 0 
0 0 14 36 63 79 81 78 71 50 21 0 0 0 0 0 
0 0 0 0 0 0 0 0 0 0 0 0 0 0 0 0 
0 0 0 0 0 0 0 0 0 0 0 0 0 0 0 0 0 0 0 0 0 0 0 0 0 0 0 0 0 0 0 0 
0 0 0 0 0 0 0 0 0 0 0 0 0 18 101 110 
118 117 119 126 86 92 121 80 83 84 80 78 82 81 76 53 
0 0 0 0 0 0 0 0 0 0 0 0 0 0 0 0 
0 0 0 0 0 0 0 0 0 0 0 0 0 0 0 0 0 0 0 0 0 0 0 0 0 0 0 0 0 0 0 0 
0 0 0 0 0 0 0 0 0 0 40 107 115 125 126 134 
135 130 141 95 118 81 104 144 115 147 139 132 96 108 92 73 
79 86 63 0 0 0 0 0 0 0 0 0 0 0 0 0 
0 0 0 0 0 0 0 0 0 0 0 0 0 0 0 0 0 0 0 0 0 0 0 0 0 0 0 0 0 0 0 0 
0 0 0 0 0 0 0 0 112 121 120 134 144 151 151 148 
124 96 133 119 119 172 140 148 147 140 99 87 95 128 113 84 
84 122 93 75 77 44 0 0 0 0 0 0 0 0 0 0 
0 0 0 0 0 0 0 0 0 0 0 0 0 0 0 0 0 0 0 0 0 0 0 0 0 0 0 0 0 0 0 0 
0 0 0 0 0 0 119 130 140 141 148 147 158 161 121 129 
130 167 176 157 164 166 168 160 156 147 127 156 156 158 158 145 
135 136 107 116 105 93 77 40 0 0 0 0 0 0 0 0 
0 0 0 0 0 0 0 0 0 0 0 0 0 0 0 0 0 0 0 0 0 0 0 0 0 0 0 0 0 0 0 0 
0 0 0 0 119 132 139 148 155 160 155 159 142 153 166 177 
174 139 171 165 155 148 137 155 157 153 161 178 154 105 127 130 
145 129 109 102 110 105 91 87 71 30 0 0 0 0 0 0 
0 0 0 0 0 0 0 0 0 0 0 0 0 0 0 0 0 0 0 0 0 0 0 0 0 0 0 0 0 0 0 0 
0 0 69 128 134 145 147 155 150 152 161 131 135 166 176 190 
166 148 152 130 137 126 115 110 125 151 141 163 164 140 139 108 
128 118 89 124 99 104 116 85 93 85 66 0 0 0 0 0 
0 0 0 0 0 0 0 0 0 0 0 0 0 0 0 0 0 0 0 0 0 0 0 0 0 0 0 0 0 0 0 0 
0 115 130 117 146 152 160 160 160 169 165 84 135 185 185 183 
175 179 137 129 84 92 152 171 164 148 138 120 146 129 149 167 
129 127 100 118 90 101 103 98 92 119 79 79 27 0 0 0 
0 0 0 0 0 0 0 0 0 0 0 0 0 0 0 0 0 0 0 0 0 0 0 0 0 0 0 0 0 0 0 15 
125 128 116 145 169 128 131 172 165 125 154 73 159 179 181 180 
201 172 182 157 107 166 194 205 215 201 193 170 168 131 144 134 
155 107 89 108 93 113 122 143 113 104 88 88 86 51 0 0 
0 0 0 0 0 0 0 0 0 0 0 0 0 0 0 0 0 0 0 0 0 0 0 0 0 0 0 0 0 0 51 132 
130 150 174 181 182 177 163 145 127 66 147 174 183 186 169 194 
204 207 194 140 128 130 93 137 138 172 138 143 158 178 129 100 
130 90 85 96 93 96 111 120 142 91 107 89 81 89 60 0 
0 0 0 0 0 0 0 0 0 0 0 0 0 0 0 0 0 0 0 0 0 0 0 0 0 0 0 0 0 84 133 126 
97 171 184 190 141 141 139 129 138 127 187 171 177 182 187 198 
193 201 133 109 117 126 124 111 116 160 188 130 118 80 90 91 
106 85 76 76 91 96 129 145 116 139 118 105 66 78 72 63 
0 0 0 0 0 0 0 0 0 0 0 0 0 0 0 0 0 0 0 0 0 0 0 0 0 0 0 0 97 132 144 120 
178 190 199 150 163 87 112 152 113 147 204 185 133 126 140 114 
129 113 140 120 119 215 119 74 178 81 103 94 121 203 95 110 
95 108 94 74 108 113 141 143 138 123 93 81 78 82 81 77 
65 0 0 0 0 0 0 0 0 0 0 0 0 0 0 0 0 0 0 0 0 0 0 0 0 0 0 83 142 148 135 143 
191 199 143 113 163 162 148 117 172 198 228 174 143 77 134 124 
129 115 109 181 122 192 125 155 189 198 112 196 143 144 126 104 
104 99 93 164 148 106 155 166 120 156 107 75 124 109 112 80 
76 53 0 0 0 0 0 0 0 0 0 0 0 0 0 0 0 0 0 0 0 0 0 0 0 0 30 114 125 133 92 191 
207 122 92 182 167 173 175 200 69 135 175 60 67 90 125 134 
93 105 119 111 100 125 114 173 151 126 139 131 148 126 128 113 
107 93 97 153 155 122 126 154 112 118 98 102 80 133 82 91 
86 80 48 0 0 0 0 0 0 0 0 0 0 0 0 0 0 0 0 0 0 0 0 0 0 14 115 140 146 95 188 196 
155 91 172 186 183 197 190 112 102 221 224 109 69 65 63 96 
100 115 117 139 178 129 117 135 150 165 154 126 109 111 132 107 
104 106 93 200 152 140 148 121 112 127 145 141 132 155 110 108 
105 106 75 31 0 0 0 0 0 0 0 0 0 0 0 0 0 0 0 0 0 0 0 0 0 120 137 130 79 186 189 160 
168 191 185 185 199 182 147 191 222 225 208 212 175 95 73 81 
102 118 158 139 92 96 112 236 183 211 116 116 124 150 124 112 
111 109 97 88 128 131 198 155 160 146 159 132 169 95 144 111 
105 111 90 66 13 0 0 0 0 0 0 0 0 0 0 0 0 0 0 0 0 0 0 0 110 134 140 79 184 190 188 192 
169 161 189 198 205 206 228 238 208 228 230 226 232 222 146 70 
84 74 108 100 172 122 160 109 203 136 77 147 134 135 106 112 
113 110 112 113 113 85 112 99 143 133 179 173 160 133 110 88 
113 133 88 91 56 0 0 0 0 0 0 0 0 0 20 0 0 0 0 0 0 0 0 16 132 110 158 141 199 190 164 187 
167 189 206 187 187 223 218 232 103 222 145 238 239 223 83 116 
114 68 87 121 94 125 108 224 213 69 112 135 133 141 127 120 
111 111 111 113 105 99 133 120 228 148 165 169 118 181 115 124 
125 141 139 91 79 35 0 0 0 0 0 0 0 0 0 0 0 0 0 0 0 0 0 120 111 124 167 157 186 176 186 189 
185 107 184 172 159 145 170 210 83 107 89 82 207 243 130 96 
91 72 71 74 113 152 131 213 109 129 113 66 68 130 116 114 
113 113 113 106 103 118 104 112 117 131 105 144 167 154 170 149 
149 125 137 106 78 66 0 0 0 0 0 0 0 0 0 0 0 0 0 0 0 0 81 111 138 109 156 182 173 164 203 199 
144 101 71 154 162 131 116 102 159 74 145 108 154 250 75 100 
93 107 69 96 148 79 91 252 176 171 127 108 65 61 126 118 
107 108 112 113 109 121 107 125 133 124 150 138 133 97 110 123 
136 151 146 108 94 77 47 0 0 0 0 0 0 0 0 0 0 0 0 0 0 0 111 131 148 146 120 179 124 182 150 208 
209 175 101 190 196 130 60 60 130 127 137 154 141 89 95 70 
77 169 75 69 118 72 60 211 215 147 106 113 62 67 77 129 
119 108 113 114 121 114 115 118 133 120 127 153 159 117 100 114 
124 136 128 117 86 90 67 13 0 0 0 0 0 0 0 0 0 0 0 0 0 89 96 148 131 174 74 182 187 161 183 190 
217 227 196 225 208 182 69 142 121 83 102 146 77 70 81 70 
93 76 56 87 60 64 70 180 106 127 101 218 220 115 123 141 
125 120 106 104 123 109 131 151 125 162 160 170 145 161 98 102 
106 102 134 116 97 92 81 46 0 0 0 0 0 0 0 0 0 0 0 0 0 100 115 155 164 172 104 195 187 162 205 199 
183 130 201 230 204 151 88 116 70 77 114 97 119 91 96 81 
68 90 56 60 99 110 183 91 93 93 93 99 166 208 162 196 
140 115 110 119 111 110 114 122 130 154 145 145 157 118 118 100 
84 85 83 96 95 93 96 62 0 0 0 0 0 0 0 0 0 0 0 0 35 93 146 158 160 177 178 184 197 182 197 181 
169 121 200 196 165 59 95 92 75 93 95 76 72 83 88 93 
76 114 56 61 217 95 92 110 111 128 136 125 124 158 126 160 
130 157 141 137 133 122 139 84 85 111 135 138 112 107 113 105 
91 73 80 99 98 98 96 71 38 0 0 0 0 0 0 0 0 0 0 0 101 89 162 178 182 170 198 201 205 184 180 195 
109 178 203 63 101 86 71 75 97 73 87 66 83 70 67 100 
123 116 78 90 101 116 92 123 120 144 145 140 121 123 118 137 
131 161 144 118 130 75 97 82 77 114 93 106 94 91 110 100 
116 73 82 91 94 100 117 79 56 0 0 0 0 0 0 0 0 0 0 0 98 89 173 189 189 183 185 148 204 188 138 138 
190 209 156 57 57 93 74 74 118 71 86 86 60 58 60 68 
60 57 61 91 124 75 65 58 133 137 136 134 138 145 135 90 
65 76 81 79 111 73 78 76 81 101 94 111 91 89 91 107 
82 84 97 103 103 105 125 95 64 25 0 0 0 0 0 0 0 0 0 76 104 107 166 189 196 184 187 193 161 162 119 109 
95 151 61 111 68 72 91 90 82 63 62 68 100 99 72 61 
94 87 62 65 60 67 70 61 107 115 129 142 145 138 147 143 
148 81 73 81 130 124 121 77 74 84 80 90 91 90 77 81 
79 82 100 88 89 107 133 103 77 46 0 0 0 0 0 0 0 0 0 112 97 97 157 167 203 194 168 180 171 133 163 156 
203 151 57 65 72 67 74 64 69 61 75 60 72 59 57 60 
65 64 62 63 62 65 66 62 109 124 124 137 138 135 135 133 
137 151 144 135 124 129 130 143 86 104 85 75 92 73 77 75 
97 109 107 121 107 137 130 98 75 59 0 0 0 0 0 0 0 0 0 102 92 111 143 158 181 211 123 151 122 179 134 189 
124 60 68 83 103 97 85 63 62 61 61 58 96 67 57 60 
64 65 63 63 65 69 72 138 149 132 123 138 148 134 135 133 
140 132 142 140 133 135 144 66 80 99 80 68 86 67 79 79 
81 94 87 95 108 140 134 92 61 69 0 0 0 0 0 0 0 0 0 99 92 148 164 155 166 198 174 132 128 155 211 177 
145 67 66 82 119 93 62 62 62 64 61 92 60 68 62 65 
69 76 72 71 80 155 136 146 136 122 116 124 191 141 138 141 
131 139 132 141 129 136 138 70 103 76 63 63 67 69 66 76 
71 90 68 84 157 137 134 120 93 76 31 0 0 0 0 0 0 0 39 105 119 185 118 138 171 187 207 104 162 102 128 158 
59 59 93 103 86 108 62 64 85 109 129 129 61 61 57 64 
76 158 142 146 152 146 139 163 132 75 72 119 144 190 129 158 
133 138 137 135 134 142 73 66 64 70 68 61 63 61 73 59 
69 88 78 136 160 149 138 93 84 75 44 0 0 0 0 0 0 0 108 153 165 88 75 107 109 155 120 105 149 84 139 59 
87 78 60 102 94 64 65 127 135 139 148 145 68 117 113 68 
86 155 159 162 159 157 156 155 145 127 111 72 77 120 157 130 
130 135 141 130 137 132 62 63 64 63 73 59 62 66 63 72 
65 85 116 160 154 135 107 95 88 94 52 0 0 0 0 0 0 0 122 127 90 78 73 73 164 81 73 114 121 143 80 79 
115 58 61 61 71 102 111 120 137 156 159 150 142 143 142 144 
154 158 142 161 144 159 151 136 157 130 134 123 79 77 126 120 
149 133 150 161 128 64 60 62 62 61 81 57 64 59 58 70 
80 86 174 168 147 110 76 97 91 95 61 0 0 0 0 0 0 0 128 95 88 101 73 79 115 182 98 79 66 78 61 123 
104 63 63 73 103 131 122 133 133 145 148 147 143 136 141 127 
122 156 147 156 132 144 154 147 146 91 131 112 108 74 86 87 
104 200 138 140 109 60 61 63 63 57 57 56 65 79 67 63 
66 120 168 128 104 85 71 94 92 78 65 0 0 0 0 0 0 0 124 112 120 99 82 70 67 72 77 113 75 66 88 87 
79 66 64 120 140 130 132 139 145 146 140 145 130 143 148 156 
140 162 167 164 142 125 141 153 142 134 139 127 114 114 129 76 
71 108 174 110 64 64 120 61 63 58 54 60 66 70 67 64 
70 198 164 70 75 102 79 127 89 74 65 0 0 0 0 0 0 0 110 148 91 88 103 68 71 69 133 67 83 69 153 71 
69 78 131 118 116 128 146 139 123 136 141 143 129 131 139 154 
127 148 127 154 141 152 142 151 147 126 139 133 129 123 112 109 
123 75 107 66 68 132 118 61 58 59 60 92 66 89 58 57 
87 198 98 85 79 91 81 105 93 77 63 0 0 0 0 0 0 0 110 113 97 96 123 90 77 139 69 67 78 117 107 100 
71 90 150 151 131 131 139 139 132 134 120 137 142 134 156 168 
143 150 123 151 138 137 141 144 152 145 127 128 119 92 104 101 
109 105 88 68 117 128 136 60 71 66 57 97 68 98 61 94 
170 78 62 69 78 90 127 89 91 83 67 0 0 0 0 0 0 0 120 106 88 120 141 79 78 72 68 76 130 102 154 200 
162 98 119 136 143 132 143 148 127 120 151 161 175 201 157 137 
160 128 123 164 148 146 152 145 150 143 142 122 99 91 77 158 
189 105 113 105 107 103 115 55 55 63 53 107 71 74 67 57 
185 78 63 62 85 100 121 88 80 83 65 0 0 0 0 0 0 0 127 100 90 103 80 75 89 75 101 172 106 87 67 75 
84 134 117 145 137 130 140 150 134 176 175 129 229 145 147 128 
138 144 125 150 137 144 144 147 205 144 123 119 101 88 71 128 
97 95 74 93 103 100 126 54 78 55 58 82 72 69 56 71 
159 61 89 132 74 103 79 81 72 69 63 0 0 0 0 0 0 0 116 97 95 112 86 128 142 110 92 90 164 96 72 158 
104 151 149 150 141 224 148 144 150 168 158 146 148 152 151 152 
157 165 177 151 156 139 163 144 178 120 124 108 96 105 71 97 
166 97 115 107 122 136 140 58 54 55 82 78 57 55 64 153 
65 80 71 85 60 115 91 67 74 69 59 0 0 0 0 0 0 0 122 94 96 111 127 139 143 135 68 113 76 68 80 169 
146 151 136 142 183 148 124 146 157 142 142 143 138 190 160 167 
169 148 157 158 142 135 196 180 169 165 134 83 164 83 104 85 
120 143 94 93 144 132 160 53 56 54 76 83 70 98 187 202 
70 65 76 85 71 70 86 97 96 69 59 0 0 0 0 0 0 0 117 101 97 122 93 161 142 151 104 76 111 89 188 204 
132 128 152 141 193 150 150 191 163 134 146 146 196 120 153 197 
164 162 151 158 137 203 202 185 138 131 124 98 76 167 104 68 
80 118 117 148 142 117 57 60 95 62 63 103 94 114 159 72 
70 77 69 63 137 95 72 93 87 83 54 0 0 0 0 0 0 0 111 108 98 132 117 116 105 75 125 89 94 85 197 170 
131 143 156 159 199 176 176 153 145 132 139 142 150 134 145 145 
154 139 136 125 150 113 97 105 142 147 99 180 111 78 69 69 
104 99 149 197 121 170 69 72 91 194 64 122 85 162 112 65 
74 59 69 84 69 89 78 93 89 65 49 0 0 0 0 0 0 0 49 108 107 119 144 117 84 82 141 107 95 110 192 187 
155 139 147 163 165 177 160 142 134 116 134 146 120 136 144 126 
132 135 133 119 109 91 195 97 70 64 65 83 77 80 74 85 
107 71 119 135 230 116 71 114 72 131 89 64 75 99 112 106 
61 81 76 63 64 70 76 77 76 75 41 0 0 0 0 0 0 0 12 122 136 151 156 142 171 143 89 82 158 141 194 187 
106 128 142 142 135 133 141 126 121 134 131 133 133 112 125 118 
119 108 119 84 97 73 78 92 75 72 69 109 116 109 85 75 
67 78 176 137 232 73 79 69 76 71 74 104 81 77 147 77 
91 135 83 81 79 78 103 79 87 70 27 0 0 0 0 0 0 0 0 123 134 134 167 153 122 93 93 152 174 177 152 153 
94 127 175 209 203 117 126 135 111 115 112 120 130 124 128 86 
98 99 90 72 70 72 81 69 68 90 120 140 120 150 59 113 
77 97 160 175 203 78 90 89 57 63 66 64 107 79 70 77 
79 71 74 106 104 70 97 103 66 64 0 0 0 0 0 0 0 0 0 130 129 135 159 145 165 165 136 160 136 117 190 92 
122 128 213 225 138 174 102 102 115 113 113 155 96 155 126 79 
95 91 77 88 116 136 89 98 78 82 117 141 140 102 128 64 
48 93 172 184 197 87 172 65 146 90 70 59 61 62 60 59 
61 59 68 121 78 104 110 95 83 58 0 0 0 0 0 0 0 0 0 82 133 117 135 140 149 146 156 178 175 102 81 108 
71 112 220 241 185 169 193 105 113 112 156 143 122 127 105 177 
146 92 123 178 189 139 105 91 83 78 90 109 108 87 143 84 
79 95 130 162 167 64 58 60 55 54 55 64 64 69 61 74 
73 72 69 83 133 106 80 83 73 40 0 0 0 0 0 0 0 0 0 0 128 148 123 114 136 114 96 95 140 151 152 75 
118 98 103 166 235 170 168 166 158 240 215 147 123 130 175 150 
159 133 115 91 128 123 125 98 78 76 78 101 92 63 94 83 
78 94 89 121 145 81 119 62 62 77 54 123 137 86 69 86 
73 62 110 143 135 82 111 78 71 13 0 0 0 0 0 0 0 0 0 0 130 122 152 99 99 93 141 85 154 120 165 146 
108 158 165 186 213 172 129 185 210 201 151 181 89 191 186 194 
201 106 127 90 125 131 121 100 74 64 65 84 94 62 66 83 
80 76 81 85 127 124 87 62 61 54 54 103 159 61 58 67 
60 59 133 116 77 95 89 73 60 0 0 0 0 0 0 0 0 0 0 0 60 107 137 171 171 171 160 161 143 157 178 80 
103 118 241 253 228 183 202 191 193 216 158 170 135 70 85 87 
208 118 139 127 110 90 87 122 86 80 126 100 75 72 75 71 
80 87 90 108 127 126 123 66 55 54 94 108 144 66 57 59 
57 65 110 72 77 76 91 81 36 0 0 0 0 0 0 0 0 0 0 0 0 115 113 142 173 186 185 185 140 98 95 71 
86 86 93 197 106 153 209 208 209 210 81 154 145 106 100 147 
79 166 190 202 142 161 134 139 95 106 136 69 70 76 75 76 
77 71 74 57 112 142 122 127 59 56 112 81 60 64 57 56 
59 59 64 88 103 77 91 63 0 0 0 0 0 0 0 0 0 0 0 0 0 99 91 125 110 95 98 90 112 80 80 80 
63 89 70 95 93 110 89 95 157 189 63 217 81 162 189 172 
174 158 157 211 187 183 103 118 105 79 78 70 75 76 76 72 
73 72 80 101 132 141 116 67 56 56 89 89 62 72 61 67 
70 71 64 68 75 96 83 45 0 0 0 0 0 0 0 0 0 0 0 0 0 0 104 98 89 100 78 87 70 68 68 102 
70 67 92 93 70 67 71 75 63 150 176 103 173 61 118 62 
68 126 99 173 149 188 87 74 75 72 76 75 73 70 73 78 
70 74 84 83 133 170 114 122 56 56 83 91 61 76 143 137 
63 74 121 71 96 79 71 0 0 0 0 0 0 0 0 0 0 0 0 0 0 0 90 106 90 86 116 82 94 67 78 70 
65 80 68 96 62 62 61 61 62 73 65 151 61 67 87 104 
189 165 142 190 180 138 85 75 78 75 68 70 72 69 70 69 
76 81 78 88 130 130 68 59 54 55 84 83 72 165 149 93 
68 73 72 68 88 77 45 0 0 0 0 0 0 0 0 0 0 0 0 0 0 0 0 101 99 96 93 170 159 77 78 67 
67 71 65 63 150 107 63 71 62 95 64 183 179 146 162 66 
80 138 110 168 164 146 170 124 74 76 64 63 77 68 67 76 
81 82 79 81 99 133 132 58 57 66 107 71 66 82 152 79 
64 74 87 88 74 56 0 0 0 0 0 0 0 0 0 0 0 0 0 0 0 0 0 40 124 129 103 99 108 90 84 115 
108 75 126 82 67 63 65 153 115 66 108 94 106 198 186 163 
173 178 116 169 183 154 180 172 80 76 68 70 70 84 82 81 
80 92 84 85 121 138 62 58 70 56 57 61 61 62 80 78 
100 107 90 88 71 32 0 0 0 0 0 0 0 0 0 0 0 0 0 0 0 0 0 0 122 134 124 132 77 86 69 99 
80 73 83 132 94 111 176 78 125 140 152 78 94 83 72 73 
73 100 171 196 201 176 168 116 86 77 78 83 83 84 85 86 
90 92 94 84 95 129 57 57 57 59 64 83 82 136 143 136 
85 101 93 71 52 0 0 0 0 0 0 0 0 0 0 0 0 0 0 0 0 0 0 0 0 100 135 94 99 110 88 111 
72 83 90 96 76 174 198 185 158 114 136 173 121 107 148 139 
135 185 190 188 190 190 177 134 91 87 90 89 92 95 85 93 
95 91 86 93 86 60 82 79 63 83 142 166 134 129 103 138 
111 105 86 61 0 0 0 0 0 0 0 0 0 0 0 0 0 0 0 0 0 0 0 0 0 10 99 117 128 102 77 110 
113 76 148 68 118 150 167 188 205 201 210 206 98 138 185 196 
194 173 182 118 167 162 172 154 90 98 115 87 97 97 92 96 
98 92 89 89 83 79 69 86 118 80 88 79 135 96 132 133 
118 96 71 20 0 0 0 0 0 0 0 0 0 0 0 0 0 0 0 0 0 0 0 0 0 0 60 96 114 132 101 82 
104 72 84 74 75 139 87 73 93 173 152 176 181 185 181 180 
193 192 156 160 154 171 158 186 174 95 104 97 90 102 97 107 
103 88 89 92 118 88 163 170 89 140 156 150 144 141 128 115 
100 75 40 0 0 0 0 0 0 0 0 0 0 0 0 0 0 0 0 0 0 0 0 0 0 0 0 91 101 130 114 79 
103 100 72 72 112 133 89 81 64 112 77 75 85 172 139 154 
146 98 168 180 177 174 121 150 115 74 105 110 102 95 112 108 
96 93 93 110 192 129 95 137 115 109 129 148 127 124 106 90 
75 48 0 0 0 0 0 0 0 0 0 0 0 0 0 0 0 0 0 0 0 0 0 0 0 0 0 0 105 102 150 127 
86 82 72 106 89 88 97 64 67 78 83 115 76 111 88 137 
139 137 153 192 132 179 180 64 62 59 59 110 94 101 98 96 
81 86 87 135 107 106 112 112 100 116 106 104 90 88 87 85 
52 0 0 0 0 0 0 0 0 0 0 0 0 0 0 0 0 0 0 0 0 0 0 0 0 0 0 0 0 89 125 151 
121 88 83 78 119 79 82 79 68 98 70 64 110 86 60 77 
163 121 140 180 165 195 179 174 162 86 61 59 75 98 107 96 
91 108 145 87 115 123 121 133 115 84 85 99 104 90 85 50 
0 0 0 0 0 0 0 0 0 0 0 0 0 0 0 0 0 0 0 0 0 0 0 0 0 0 0 0 0 0 70 123 
140 105 145 82 79 116 78 118 84 68 119 72 97 86 82 67 
69 62 63 186 141 140 119 150 165 136 118 64 61 65 73 93 
85 138 106 97 140 109 109 87 105 95 110 98 80 84 49 0 
0 0 0 0 0 0 0 0 0 0 0 0 0 0 0 0 0 0 0 0 0 0 0 0 0 0 0 0 0 0 0 25 
127 125 91 115 156 121 101 83 83 91 127 74 104 90 90 75 
80 69 61 63 67 72 76 78 69 142 101 71 68 66 66 138 
101 119 147 125 107 115 132 113 119 117 101 82 79 38 0 0 
0 0 0 0 0 0 0 0 0 0 0 0 0 0 0 0 0 0 0 0 0 0 0 0 0 0 0 0 0 0 0 0 
0 121 103 115 112 122 162 185 164 106 97 103 115 95 72 64 
73 63 77 96 64 98 87 122 72 96 151 90 84 125 72 92 
113 130 121 89 101 122 121 116 117 104 89 63 0 0 0 0 
0 0 0 0 0 0 0 0 0 0 0 0 0 0 0 0 0 0 0 0 0 0 0 0 0 0 0 0 0 0 0 0 
0 0 72 124 135 129 122 99 102 164 175 133 129 146 90 104 
67 64 75 117 78 77 75 138 72 95 99 96 118 118 69 89 
136 131 75 94 99 123 118 112 106 83 48 0 0 0 0 0 
0 0 0 0 0 0 0 0 0 0 0 0 0 0 0 0 0 0 0 0 0 0 0 0 0 0 0 0 0 0 0 0 
0 0 0 0 116 114 127 127 123 137 137 144 174 163 161 125 
111 111 87 135 102 130 87 90 69 72 68 72 82 96 96 73 
88 117 109 107 101 97 100 90 65 13 0 0 0 0 0 0 
0 0 0 0 0 0 0 0 0 0 0 0 0 0 0 0 0 0 0 0 0 0 0 0 0 0 0 0 0 0 0 0 
0 0 0 0 0 12 113 113 114 130 139 142 139 113 159 166 
164 139 94 119 94 144 145 112 105 109 123 121 119 124 105 90 
133 126 122 107 102 91 71 15 0 0 0 0 0 0 0 0 
0 0 0 0 0 0 0 0 0 0 0 0 0 0 0 0 0 0 0 0 0 0 0 0 0 0 0 0 0 0 0 0 
0 0 0 0 0 0 0 11 105 117 105 107 122 135 139 121 
125 150 155 150 149 132 119 125 127 116 115 123 129 130 129 127 
121 117 101 88 75 16 0 0 0 0 0 0 0 0 0 0 
0 0 0 0 0 0 0 0 0 0 0 0 0 0 0 0 0 0 0 0 0 0 0 0 0 0 0 0 0 0 0 0 
0 0 0 0 0 0 0 0 0 0 42 104 114 121 127 127 
128 117 102 101 116 129 128 132 135 133 131 125 121 115 102 94 
104 87 50 0 0 0 0 0 0 0 0 0 0 0 0 0 
0 0 0 0 0 0 0 0 0 0 0 0 0 0 0 0 0 0 0 0 0 0 0 0 0 0 0 0 0 0 0 0 
0 0 0 0 0 0 0 0 0 0 0 0 0 13 84 100 
97 105 107 108 105 99 101 101 102 100 98 95 101 91 76 28 
0 0 0 0 0 0 0 0 0 0 0 0 0 0 0 0 
0 0 0 0 0 0 0 0 0 0 0 0 0 0 0 0 0 0 0 0 0 0 0 0 0 0 0 0 0 0 0 0 
0 0 0 0 0 0 0 0 0 0 0 0 0 0 0 0 
0 0 12 19 54 65 66 64 54 28 13 0 0 0 0 0 
0 0 0 0 0 0 0 0 0 0 0 0 0 0 0 0 
0 0 0 0 0 0 0 0 0 0 0 0 0 0 0 0 0 0 0 0 0 0 0 0 0 0 0 0 0 0 0 0 
0 0 0 0 0 0 0 0 0 0 0 0 0 0 0 0 
0 0 0 0 0 0 0 0 0 0 0 0 0 0 0 0 
0 0 0 0 0 0 0 0 0 0 0 0 0 0 0 0 
0 0 0 0 0 0 0 0 0 0 0 0 0 0 0 0 0 0 0 0 0 0 0 0 0 0 0 0 0 0 0 0 
0 0 0 0 0 0 0 0 0 0 0 0 0 0 0 0 
0 0 0 0 0 0 0 0 0 0 0 0 0 0 0 0 
0 0 0 0 0 0 0 0 0 0 0 0 0 0 0 0 
0 0 0 0 0 0 0 0 0 0 0 0 0 0 0 0 0 0 0 0 0 0 0 0 0 0 0 0 0 0 0 0 
0 0 0 0 0 0 0 0 0 0 0 0 0 0 0 0 
0 0 0 0 0 0 0 0 0 0 0 0 0 0 0 0 
0 0 0 0 0 0 0 0 0 0 0 0 0 0 0 0 
0 0 0 0 0 0 0 0 0 0 0 0 0 0 0 